<svg width="150" height="150" viewBox="0 0 150 150" fill="none" xmlns="http://www.w3.org/2000/svg">
<path d="M118.48 74.5946C118.48 98.9325 99.056 118.629 75.1357 118.629C51.2154 118.629 31.7915 98.9325 31.7915 74.5946C31.7915 50.2568 51.2154 30.56 75.1357 30.56C99.056 30.56 118.48 50.2568 118.48 74.5946Z" stroke="white" stroke-width="2.5"/>
<path d="M134.312 74.5946C134.312 107.502 107.924 134.155 75.4011 134.155C42.8785 134.155 16.4907 107.502 16.4907 74.5946C16.4907 41.6874 42.8785 15.0338 75.4011 15.0338C107.924 15.0338 134.312 41.6874 134.312 74.5946Z" stroke="white" stroke-width="2.5"/>
<path d="M90.0512 74.5946C90.0512 82.9886 83.3554 89.7603 75.1358 89.7603C66.9163 89.7603 60.2205 82.9886 60.2205 74.5946C60.2205 66.2007 66.9163 59.429 75.1358 59.429C83.3554 59.429 90.0512 66.2007 90.0512 74.5946Z" fill="white" stroke="white" stroke-width="2.5"/>
<path d="M35.9808 73.7455C35.9808 76.0433 34.1515 77.8731 31.9352 77.8731C29.7189 77.8731 27.8896 76.0433 27.8896 73.7455C27.8896 71.4478 29.7189 69.618 31.9352 69.618C34.1515 69.618 35.9808 71.4478 35.9808 73.7455Z" fill="white" stroke="white" stroke-width="2.5"/>
<path d="M122.105 74.7968C122.105 77.0946 120.276 78.9244 118.059 78.9244C115.843 78.9244 114.014 77.0946 114.014 74.7968C114.014 72.499 115.843 70.6693 118.059 70.6693C120.276 70.6693 122.105 72.499 122.105 74.7968Z" fill="white" stroke="white" stroke-width="2.5"/>
<path d="M87.3411 133.378C87.3411 135.675 85.5118 137.505 83.2956 137.505C81.0793 137.505 79.25 135.675 79.25 133.378C79.25 131.08 81.0793 129.25 83.2956 129.25C85.5118 129.25 87.3411 131.08 87.3411 133.378Z" fill="white" stroke="white" stroke-width="2.5"/>
<path d="M126.341 132.378C126.341 134.675 124.512 136.505 122.296 136.505C120.079 136.505 118.25 134.675 118.25 132.378C118.25 130.08 120.079 128.25 122.296 128.25C124.512 128.25 126.341 130.08 126.341 132.378Z" fill="white" stroke="white" stroke-width="2.5"/>
<path d="M139.341 77.3776C139.341 79.6753 137.512 81.5051 135.296 81.5051C133.079 81.5051 131.25 79.6753 131.25 77.3776C131.25 75.0798 133.079 73.25 135.296 73.25C137.512 73.25 139.341 75.0798 139.341 77.3776Z" fill="white" stroke="white" stroke-width="2.5"/>
<path d="M71.3411 14.3776C71.3411 16.6753 69.5118 18.5051 67.2956 18.5051C65.0793 18.5051 63.25 16.6753 63.25 14.3776C63.25 12.0798 65.0793 10.25 67.2956 10.25C69.5118 10.25 71.3411 12.0798 71.3411 14.3776Z" fill="white" stroke="white" stroke-width="2.5"/>
<path d="M136.341 62.3776C136.341 64.6753 134.512 66.5051 132.296 66.5051C130.079 66.5051 128.25 64.6753 128.25 62.3776C128.25 60.0798 130.079 58.25 132.296 58.25C134.512 58.25 136.341 60.0798 136.341 62.3776Z" fill="white" stroke="white" stroke-width="2.5"/>
<path d="M22.3411 63.3776C22.3411 65.6753 20.5118 67.5051 18.2956 67.5051C16.0793 67.5051 14.25 65.6753 14.25 63.3776C14.25 61.0798 16.0793 59.25 18.2956 59.25C20.5118 59.25 22.3411 61.0798 22.3411 63.3776Z" fill="white" stroke="white" stroke-width="2.5"/>
<circle cx="75" cy="75" r="73.75" stroke="white" stroke-width="2.5"/>
<path d="M71.3411 133.378C71.3411 135.675 69.5118 137.505 67.2956 137.505C65.0793 137.505 63.25 135.675 63.25 133.378C63.25 131.08 65.0793 129.25 67.2956 129.25C69.5118 129.25 71.3411 131.08 71.3411 133.378Z" fill="white" stroke="white" stroke-width="2.5"/>
<path d="M71.3411 133.378C71.3411 135.675 69.5118 137.505 67.2956 137.505C65.0793 137.505 63.25 135.675 63.25 133.378C63.25 131.08 65.0793 129.25 67.2956 129.25C69.5118 129.25 71.3411 131.08 71.3411 133.378Z" fill="white" stroke="white" stroke-width="2.5"/>
<path d="M13.3411 112.378C13.3411 114.675 11.5118 116.505 9.29556 116.505C7.0793 116.505 5.25 114.675 5.25 112.378C5.25 110.08 7.0793 108.25 9.29556 108.25C11.5118 108.25 13.3411 110.08 13.3411 112.378Z" fill="white" stroke="white" stroke-width="2.5"/>
<path d="M22.3411 80.3776C22.3411 82.6753 20.5118 84.5051 18.2956 84.5051C16.0793 84.5051 14.25 82.6753 14.25 80.3776C14.25 78.0798 16.0793 76.25 18.2956 76.25C20.5118 76.25 22.3411 78.0798 22.3411 80.3776Z" fill="white" stroke="white" stroke-width="2.5"/>
<path d="M36.3411 14.3776C36.3411 16.6753 34.5118 18.5051 32.2956 18.5051C30.0793 18.5051 28.25 16.6753 28.25 14.3776C28.25 12.0798 30.0793 10.25 32.2956 10.25C34.5118 10.25 36.3411 12.0798 36.3411 14.3776Z" fill="white" stroke="white" stroke-width="2.5"/>
<path d="M87.3411 14.3776C87.3411 16.6753 85.5118 18.5051 83.2956 18.5051C81.0793 18.5051 79.25 16.6753 79.25 14.3776C79.25 12.0798 81.0793 10.25 83.2956 10.25C85.5118 10.25 87.3411 12.0798 87.3411 14.3776Z" fill="white" stroke="white" stroke-width="2.5"/>
</svg>
