<svg width="151" height="150" viewBox="0 0 151 150" fill="none" xmlns="http://www.w3.org/2000/svg">
<path d="M129.013 75C129.013 105.161 104.677 129.601 74.669 129.601C44.6611 129.601 20.325 105.161 20.325 75C20.325 44.8392 44.6611 20.3989 74.669 20.3989C104.677 20.3989 129.013 44.8392 129.013 75Z" stroke="white" stroke-width="2.5"/>
<circle cx="75" cy="75" r="73.75" stroke="white" stroke-width="2.5"/>
<path d="M93.5721 75C93.5721 85.4966 85.1035 93.996 74.6692 93.996C64.2349 93.996 55.7664 85.4966 55.7664 75C55.7664 64.5033 64.2349 56.004 74.6692 56.004C85.1035 56.004 93.5721 64.5033 93.5721 75Z" fill="white" stroke="white" stroke-width="2.5"/>
<path d="M26.164 73.9528C26.164 76.9308 23.7625 79.3351 20.8122 79.3351C17.862 79.3351 15.4604 76.9308 15.4604 73.9528C15.4604 70.9748 17.862 68.5705 20.8122 68.5705C23.7625 68.5705 26.164 70.9748 26.164 73.9528Z" fill="white" stroke="white" stroke-width="2.5"/>
<path d="M133.532 75.2493C133.532 78.2273 131.131 80.6316 128.181 80.6316C125.23 80.6316 122.829 78.2273 122.829 75.2493C122.829 72.2713 125.23 69.867 128.181 69.867C131.131 69.867 133.532 72.2713 133.532 75.2493Z" fill="white" stroke="white" stroke-width="2.5"/>
<path d="M148.954 42.6323C148.954 45.6103 146.552 48.0146 143.602 48.0146C140.652 48.0146 138.25 45.6103 138.25 42.6323C138.25 39.6543 140.652 37.25 143.602 37.25C146.552 37.25 148.954 39.6543 148.954 42.6323Z" fill="white" stroke="white" stroke-width="2.5"/>
<path d="M19.8484 117.537C19.8484 120.515 17.4469 122.919 14.4966 122.919C11.5463 122.919 9.14478 120.515 9.14478 117.537C9.14478 114.559 11.5463 112.154 14.4966 112.154C17.4469 112.154 19.8484 114.559 19.8484 117.537Z" fill="white" stroke="white" stroke-width="2.5"/>
</svg>
