<svg width="150" height="157" viewBox="0 0 150 157" fill="none" xmlns="http://www.w3.org/2000/svg">
<path d="M130.909 45.3778C130.909 47.2011 129.469 48.6342 127.746 48.6342C126.024 48.6342 124.583 47.2011 124.583 45.3778C124.583 43.5546 126.024 42.1215 127.746 42.1215C129.469 42.1215 130.909 43.5546 130.909 45.3778Z" fill="white" stroke="white" stroke-width="2.5"/>
<path d="M30.9094 83.0873C30.9094 84.9105 29.4688 86.3436 27.7465 86.3436C26.0241 86.3436 24.5835 84.9105 24.5835 83.0873C24.5835 81.2641 26.0241 79.831 27.7465 79.831C29.4688 79.831 30.9094 81.2641 30.9094 83.0873Z" fill="white" stroke="white" stroke-width="2.5"/>
<path d="M35.0759 122.473C35.0759 124.296 33.6353 125.729 31.913 125.729C30.1906 125.729 28.75 124.296 28.75 122.473C28.75 120.65 30.1906 119.216 31.913 119.216C33.6353 119.216 35.0759 120.65 35.0759 122.473Z" fill="white" stroke="white" stroke-width="2.5"/>
<path d="M42.5759 27.7801C42.5759 29.6033 41.1353 31.0364 39.413 31.0364C37.6906 31.0364 36.25 29.6033 36.25 27.7801C36.25 25.9569 37.6906 24.5237 39.413 24.5237C41.1353 24.5237 42.5759 25.9569 42.5759 27.7801Z" fill="white" stroke="white" stroke-width="2.5"/>
<path d="M111.025 78.2413C111.025 98.5339 94.922 114.939 75.113 114.939C55.304 114.939 39.2012 98.5339 39.2012 78.2413C39.2012 57.9487 55.304 41.5433 75.113 41.5433C94.922 41.5433 111.025 57.9487 111.025 78.2413Z" stroke="white" stroke-width="2.5"/>
<path d="M124.218 78.2413C124.218 105.714 102.312 127.95 75.3339 127.95C48.3553 127.95 26.4502 105.714 26.4502 78.2413C26.4502 50.7686 48.3553 28.5325 75.3339 28.5325C102.312 28.5325 124.218 50.7686 124.218 78.2413Z" stroke="white" stroke-width="2.5"/>
<path d="M87.3339 78.2413C87.3339 85.1731 81.8378 90.7475 75.1128 90.7475C68.3877 90.7475 62.8916 85.1731 62.8916 78.2413C62.8916 71.3096 68.3877 65.7352 75.1128 65.7352C81.8378 65.7352 87.3339 71.3096 87.3339 78.2413Z" fill="white" stroke="white" stroke-width="2.5"/>
<path d="M42.2751 77.5298C42.2751 79.353 40.8345 80.7861 39.1122 80.7861C37.3899 80.7861 35.9492 79.353 35.9492 77.5298C35.9492 75.7065 37.3899 74.2734 39.1122 74.2734C40.8345 74.2734 42.2751 75.7065 42.2751 77.5298Z" fill="white" stroke="white" stroke-width="2.5"/>
<path d="M42.2756 77.5298C42.2756 79.353 40.835 80.7861 39.1127 80.7861C37.3904 80.7861 35.9497 79.353 35.9497 77.5298C35.9497 75.7065 37.3904 74.2734 39.1127 74.2734C40.835 74.2734 42.2756 75.7065 42.2756 77.5298Z" fill="white" stroke="white" stroke-width="2.5"/>
<path d="M26.7424 111.579C26.7424 113.402 25.3018 114.835 23.5795 114.835C21.8572 114.835 20.4165 113.402 20.4165 111.579C20.4165 109.756 21.8572 108.323 23.5795 108.323C25.3018 108.323 26.7424 109.756 26.7424 111.579Z" fill="white" stroke="white" stroke-width="2.5"/>
<path d="M114.046 78.4107C114.046 80.234 112.605 81.6671 110.883 81.6671C109.16 81.6671 107.72 80.234 107.72 78.4107C107.72 76.5875 109.16 75.1544 110.883 75.1544C112.605 75.1544 114.046 76.5875 114.046 78.4107Z" fill="white" stroke="white" stroke-width="2.5"/>
<path d="M85.0759 127.501C85.0759 129.324 83.6353 130.757 81.913 130.757C80.1906 130.757 78.75 129.324 78.75 127.501C78.75 125.677 80.1906 124.244 81.913 124.244C83.6353 124.244 85.0759 125.677 85.0759 127.501Z" fill="white" stroke="white" stroke-width="2.5"/>
<path d="M78.5759 151.506C78.5759 153.33 77.1353 154.763 75.413 154.763C73.6906 154.763 72.25 153.33 72.25 151.506C72.25 149.683 73.6906 148.25 75.413 148.25C77.1353 148.25 78.5759 149.683 78.5759 151.506Z" fill="white" stroke="white" stroke-width="2.5"/>
<path d="M117.576 126.663C117.576 128.486 116.135 129.919 114.413 129.919C112.691 129.919 111.25 128.486 111.25 126.663C111.25 124.84 112.691 123.406 114.413 123.406C116.135 123.406 117.576 124.84 117.576 126.663Z" fill="white" stroke="white" stroke-width="2.5"/>
<path d="M128.409 80.5733C128.409 82.3966 126.968 83.8297 125.246 83.8297C123.524 83.8297 122.083 82.3966 122.083 80.5733C122.083 78.7501 123.524 77.317 125.246 77.317C126.968 77.317 128.409 78.7501 128.409 80.5733Z" fill="white" stroke="white" stroke-width="2.5"/>
<path d="M71.7424 27.7801C71.7424 29.6033 70.3018 31.0364 68.5795 31.0364C66.8572 31.0364 65.4165 29.6033 65.4165 27.7801C65.4165 25.9569 66.8572 24.5237 68.5795 24.5237C70.3018 24.5237 71.7424 25.9569 71.7424 27.7801Z" fill="white" stroke="white" stroke-width="2.5"/>
<path d="M125.909 68.0035C125.909 69.8267 124.468 71.2598 122.746 71.2598C121.024 71.2598 119.583 69.8267 119.583 68.0035C119.583 66.1803 121.024 64.7472 122.746 64.7472C124.468 64.7472 125.909 66.1803 125.909 68.0035Z" fill="white" stroke="white" stroke-width="2.5"/>
<path d="M30.9089 68.8415C30.9089 70.6648 29.4683 72.0979 27.746 72.0979C26.0237 72.0979 24.583 70.6648 24.583 68.8415C24.583 67.0183 26.0237 65.5852 27.746 65.5852C29.4683 65.5852 30.9089 67.0183 30.9089 68.8415Z" fill="white" stroke="white" stroke-width="2.5"/>
<path d="M126.742 115.769C126.742 117.592 125.302 119.025 123.579 119.025C121.857 119.025 120.417 117.592 120.417 115.769C120.417 113.946 121.857 112.513 123.579 112.513C125.302 112.513 126.742 113.946 126.742 115.769Z" fill="white" stroke="white" stroke-width="2.5"/>
<path d="M30.9094 38.6739C30.9094 40.4972 29.4688 41.9303 27.7465 41.9303C26.0241 41.9303 24.5835 40.4972 24.5835 38.6739C24.5835 36.8507 26.0241 35.4176 27.7465 35.4176C29.4688 35.4176 30.9094 36.8507 30.9094 38.6739Z" fill="white" stroke="white" stroke-width="2.5"/>
<path d="M136.25 78.581C136.25 112.608 108.821 140.18 75 140.18C41.1791 140.18 13.75 112.608 13.75 78.581C13.75 44.5541 41.1791 16.9818 75 16.9818C108.821 16.9818 136.25 44.5541 136.25 78.581Z" stroke="white" stroke-width="2.5"/>
<circle cx="75" cy="79" r="73.75" stroke="white" stroke-width="2.5"/>
<path d="M71.7424 127.501C71.7424 129.324 70.3018 130.757 68.5795 130.757C66.8572 130.757 65.4165 129.324 65.4165 127.501C65.4165 125.677 66.8572 124.244 68.5795 124.244C70.3018 124.244 71.7424 125.677 71.7424 127.501Z" fill="white" stroke="white" stroke-width="2.5"/>
<path d="M71.7424 127.501C71.7424 129.324 70.3018 130.757 68.5795 130.757C66.8572 130.757 65.4165 129.324 65.4165 127.501C65.4165 125.677 66.8572 124.244 68.5795 124.244C70.3018 124.244 71.7424 125.677 71.7424 127.501Z" fill="white" stroke="white" stroke-width="2.5"/>
<path d="M78.5759 4.50633C78.5759 6.32955 77.1353 7.76266 75.413 7.76266C73.6906 7.76266 72.25 6.32955 72.25 4.50633C72.25 2.68311 73.6906 1.25 75.413 1.25C77.1353 1.25 78.5759 2.68311 78.5759 4.50633Z" fill="white" stroke="white" stroke-width="2.5"/>
<path d="M120.909 33.646C120.909 35.4692 119.469 36.9023 117.746 36.9023C116.024 36.9023 114.583 35.4692 114.583 33.646C114.583 31.8228 116.024 30.3896 117.746 30.3896C119.469 30.3896 120.909 31.8228 120.909 33.646Z" fill="white" stroke="white" stroke-width="2.5"/>
<path d="M85.0759 27.7801C85.0759 29.6033 83.6353 31.0364 81.913 31.0364C80.1906 31.0364 78.75 29.6033 78.75 27.7801C78.75 25.9569 80.1906 24.5237 81.913 24.5237C83.6353 24.5237 85.0759 25.9569 85.0759 27.7801Z" fill="white" stroke="white" stroke-width="2.5"/>
</svg>
