<svg width="151" height="162" viewBox="0 0 151 162" fill="none" xmlns="http://www.w3.org/2000/svg">
<path d="M129.013 82C129.013 112.161 104.677 136.601 74.669 136.601C44.6611 136.601 20.325 112.161 20.325 82C20.325 51.8392 44.6611 27.3989 74.669 27.3989C104.677 27.3989 129.013 51.8392 129.013 82Z" stroke="white" stroke-width="2.5"/>
<circle cx="75" cy="82" r="73.75" stroke="white" stroke-width="2.5"/>
<path d="M93.5721 82C93.5721 92.4966 85.1035 100.996 74.6692 100.996C64.2349 100.996 55.7664 92.4966 55.7664 82C55.7664 71.5033 64.2349 63.004 74.6692 63.004C85.1035 63.004 93.5721 71.5033 93.5721 82Z" fill="white" stroke="white" stroke-width="2.5"/>
<path d="M26.164 80.9528C26.164 83.9308 23.7625 86.3351 20.8122 86.3351C17.862 86.3351 15.4604 83.9308 15.4604 80.9528C15.4604 77.9748 17.862 75.5705 20.8122 75.5705C23.7625 75.5705 26.164 77.9748 26.164 80.9528Z" fill="white" stroke="white" stroke-width="2.5"/>
<path d="M133.532 82.2493C133.532 85.2273 131.131 87.6316 128.181 87.6316C125.23 87.6316 122.829 85.2273 122.829 82.2493C122.829 79.2713 125.23 76.867 128.181 76.867C131.131 76.867 133.532 79.2713 133.532 82.2493Z" fill="white" stroke="white" stroke-width="2.5"/>
<path d="M148.954 49.6323C148.954 52.6103 146.552 55.0146 143.602 55.0146C140.652 55.0146 138.25 52.6103 138.25 49.6323C138.25 46.6543 140.652 44.25 143.602 44.25C146.552 44.25 148.954 46.6543 148.954 49.6323Z" fill="white" stroke="white" stroke-width="2.5"/>
<path d="M19.8484 124.537C19.8484 127.515 17.4469 129.919 14.4966 129.919C11.5463 129.919 9.14478 127.515 9.14478 124.537C9.14478 121.559 11.5463 119.154 14.4966 119.154C17.4469 119.154 19.8484 121.559 19.8484 124.537Z" fill="white" stroke="white" stroke-width="2.5"/>
<path d="M66.9536 154.632C66.9536 157.61 64.5521 160.015 61.6018 160.015C58.6515 160.015 56.25 157.61 56.25 154.632C56.25 151.654 58.6515 149.25 61.6018 149.25C64.5521 149.25 66.9536 151.654 66.9536 154.632Z" fill="white" stroke="white" stroke-width="2.5"/>
<path d="M86.9536 6.63231C86.9536 9.61032 84.5521 12.0146 81.6018 12.0146C78.6515 12.0146 76.25 9.61032 76.25 6.63231C76.25 3.6543 78.6515 1.25 81.6018 1.25C84.5521 1.25 86.9536 3.6543 86.9536 6.63231Z" fill="white" stroke="white" stroke-width="2.5"/>
</svg>
