<svg width="158" height="162" viewBox="0 0 158 162" fill="none" xmlns="http://www.w3.org/2000/svg">
<path d="M136.013 82C136.013 112.161 111.677 136.601 81.669 136.601C51.6611 136.601 27.325 112.161 27.325 82C27.325 51.8392 51.6611 27.3989 81.669 27.3989C111.677 27.3989 136.013 51.8392 136.013 82Z" stroke="white" stroke-width="2.5"/>
<circle cx="82" cy="82" r="73.75" stroke="white" stroke-width="2.5"/>
<path d="M100.572 82C100.572 92.4966 92.1035 100.996 81.6692 100.996C71.2349 100.996 62.7664 92.4966 62.7664 82C62.7664 71.5033 71.2349 63.004 81.6692 63.004C92.1035 63.004 100.572 71.5033 100.572 82Z" fill="white" stroke="white" stroke-width="2.5"/>
<path d="M33.164 80.9528C33.164 83.9308 30.7625 86.3351 27.8122 86.3351C24.862 86.3351 22.4604 83.9308 22.4604 80.9528C22.4604 77.9748 24.862 75.5705 27.8122 75.5705C30.7625 75.5705 33.164 77.9748 33.164 80.9528Z" fill="white" stroke="white" stroke-width="2.5"/>
<path d="M140.532 82.2493C140.532 85.2273 138.131 87.6316 135.181 87.6316C132.23 87.6316 129.829 85.2273 129.829 82.2493C129.829 79.2713 132.23 76.867 135.181 76.867C138.131 76.867 140.532 79.2713 140.532 82.2493Z" fill="white" stroke="white" stroke-width="2.5"/>
<path d="M142.954 130.632C142.954 133.61 140.552 136.015 137.602 136.015C134.652 136.015 132.25 133.61 132.25 130.632C132.25 127.654 134.652 125.25 137.602 125.25C140.552 125.25 142.954 127.654 142.954 130.632Z" fill="white" stroke="white" stroke-width="2.5"/>
<path d="M37.9536 25.6323C37.9536 28.6103 35.5521 31.0146 32.6018 31.0146C29.6515 31.0146 27.25 28.6103 27.25 25.6323C27.25 22.6543 29.6515 20.25 32.6018 20.25C35.5521 20.25 37.9536 22.6543 37.9536 25.6323Z" fill="white" stroke="white" stroke-width="2.5"/>
<path d="M155.954 49.6323C155.954 52.6103 153.552 55.0146 150.602 55.0146C147.652 55.0146 145.25 52.6103 145.25 49.6323C145.25 46.6543 147.652 44.25 150.602 44.25C153.552 44.25 155.954 46.6543 155.954 49.6323Z" fill="white" stroke="white" stroke-width="2.5"/>
<path d="M26.8484 124.537C26.8484 127.515 24.4469 129.919 21.4966 129.919C18.5463 129.919 16.1448 127.515 16.1448 124.537C16.1448 121.559 18.5463 119.154 21.4966 119.154C24.4469 119.154 26.8484 121.559 26.8484 124.537Z" fill="white" stroke="white" stroke-width="2.5"/>
<path d="M73.9536 154.632C73.9536 157.61 71.5521 160.015 68.6018 160.015C65.6515 160.015 63.25 157.61 63.25 154.632C63.25 151.654 65.6515 149.25 68.6018 149.25C71.5521 149.25 73.9536 151.654 73.9536 154.632Z" fill="white" stroke="white" stroke-width="2.5"/>
<path d="M93.9536 6.63231C93.9536 9.61032 91.5521 12.0146 88.6018 12.0146C85.6515 12.0146 83.25 9.61032 83.25 6.63231C83.25 3.6543 85.6515 1.25 88.6018 1.25C91.5521 1.25 93.9536 3.6543 93.9536 6.63231Z" fill="white" stroke="white" stroke-width="2.5"/>
<path d="M11.9536 75.6323C11.9536 78.6103 9.55208 81.0146 6.6018 81.0146C3.65151 81.0146 1.25 78.6103 1.25 75.6323C1.25 72.6543 3.65151 70.25 6.6018 70.25C9.55208 70.25 11.9536 72.6543 11.9536 75.6323Z" fill="white" stroke="white" stroke-width="2.5"/>
</svg>
