<svg width="164" height="150" viewBox="0 0 164 150" fill="none" xmlns="http://www.w3.org/2000/svg">
<circle cx="81.1616" cy="75" r="73.75" stroke="white" stroke-width="2.5"/>
<path d="M104.804 75.375C104.804 88.6918 93.9418 99.5 80.5269 99.5C67.1121 99.5 56.25 88.6918 56.25 75.375C56.25 62.0582 67.1121 51.25 80.5269 51.25C93.9418 51.25 104.804 62.0582 104.804 75.375Z" fill="white" stroke="white" stroke-width="2.5"/>
<path d="M15.4746 68.6875C15.4746 72.581 12.2973 75.75 8.36228 75.75C4.42723 75.75 1.25 72.581 1.25 68.6875C1.25 64.794 4.42723 61.625 8.36228 61.625C12.2973 61.625 15.4746 64.794 15.4746 68.6875Z" fill="white" stroke="white" stroke-width="2.5"/>
<path d="M162.475 70.3125C162.475 74.206 159.297 77.375 155.362 77.375C151.427 77.375 148.25 74.206 148.25 70.3125C148.25 66.419 151.427 63.25 155.362 63.25C159.297 63.25 162.475 66.419 162.475 70.3125Z" fill="white" stroke="white" stroke-width="2.5"/>
</svg>
