<svg width="147" height="140" viewBox="0 0 147 140" fill="none" xmlns="http://www.w3.org/2000/svg">
<path d="M145.75 70C145.75 107.963 114.789 138.75 76.5808 138.75C38.3727 138.75 7.41168 107.963 7.41168 70C7.41168 32.0374 38.3727 1.25 76.5808 1.25C114.789 1.25 145.75 32.0374 145.75 70Z" stroke="white" stroke-width="2.5"/>
<path d="M100.858 70C100.858 83.3168 89.9957 94.125 76.5808 94.125C63.166 94.125 52.3039 83.3168 52.3039 70C52.3039 56.6832 63.166 45.875 76.5808 45.875C89.9957 45.875 100.858 56.6832 100.858 70Z" fill="white" stroke="white" stroke-width="2.5"/>
<path d="M15.4746 68.6875C15.4746 72.581 12.2973 75.75 8.36228 75.75C4.42723 75.75 1.25 72.581 1.25 68.6875C1.25 64.794 4.42723 61.625 8.36228 61.625C12.2973 61.625 15.4746 64.794 15.4746 68.6875Z" fill="white" stroke="white" stroke-width="2.5"/>
</svg>
