<svg width="150" height="150" viewBox="0 0 150 150" fill="none" xmlns="http://www.w3.org/2000/svg">
<path d="M129.013 75C129.013 105.161 104.677 129.601 74.669 129.601C44.6611 129.601 20.325 105.161 20.325 75C20.325 44.8392 44.6611 20.3989 74.669 20.3989C104.677 20.3989 129.013 44.8392 129.013 75Z" stroke="white" stroke-width="2.5"/>
<circle cx="75" cy="75" r="73.75" stroke="white" stroke-width="2.5"/>
<path d="M93.5719 75C93.5719 85.4966 85.1034 93.996 74.6691 93.996C64.2348 93.996 55.7662 85.4966 55.7662 75C55.7662 64.5033 64.2348 56.004 74.6691 56.004C85.1034 56.004 93.5719 64.5033 93.5719 75Z" fill="white" stroke="white" stroke-width="2.5"/>
<path d="M26.1642 73.9528C26.1642 76.9308 23.7627 79.3351 20.8124 79.3351C17.8621 79.3351 15.4606 76.9308 15.4606 73.9528C15.4606 70.9748 17.8621 68.5705 20.8124 68.5705C23.7627 68.5705 26.1642 70.9748 26.1642 73.9528Z" fill="white" stroke="white" stroke-width="2.5"/>
<path d="M133.532 75.2493C133.532 78.2273 131.131 80.6316 128.181 80.6316C125.23 80.6316 122.829 78.2273 122.829 75.2493C122.829 72.2713 125.23 69.867 128.181 69.867C131.131 69.867 133.532 72.2713 133.532 75.2493Z" fill="white" stroke="white" stroke-width="2.5"/>
<path d="M19.8484 117.537C19.8484 120.515 17.4469 122.919 14.4966 122.919C11.5463 122.919 9.14478 120.515 9.14478 117.537C9.14478 114.559 11.5463 112.154 14.4966 112.154C17.4469 112.154 19.8484 114.559 19.8484 117.537Z" fill="white" stroke="white" stroke-width="2.5"/>
</svg>
