<svg width="159" height="162" viewBox="0 0 159 162" fill="none" xmlns="http://www.w3.org/2000/svg">
<path d="M133.013 82C133.013 112.161 108.677 136.601 78.669 136.601C48.6611 136.601 24.325 112.161 24.325 82C24.325 51.8392 48.6611 27.3989 78.669 27.3989C108.677 27.3989 133.013 51.8392 133.013 82Z" stroke="white" stroke-width="2.5"/>
<circle cx="79" cy="82" r="73.75" stroke="white" stroke-width="2.5"/>
<path d="M97.5721 82C97.5721 92.4966 89.1035 100.996 78.6692 100.996C68.2349 100.996 59.7664 92.4966 59.7664 82C59.7664 71.5033 68.2349 63.004 78.6692 63.004C89.1035 63.004 97.5721 71.5033 97.5721 82Z" fill="white" stroke="white" stroke-width="2.5"/>
<path d="M30.164 80.9528C30.164 83.9308 27.7625 86.3351 24.8122 86.3351C21.862 86.3351 19.4604 83.9308 19.4604 80.9528C19.4604 77.9748 21.862 75.5705 24.8122 75.5705C27.7625 75.5705 30.164 77.9748 30.164 80.9528Z" fill="white" stroke="white" stroke-width="2.5"/>
<path d="M137.532 82.2493C137.532 85.2273 135.131 87.6316 132.181 87.6316C129.23 87.6316 126.829 85.2273 126.829 82.2493C126.829 79.2713 129.23 76.867 132.181 76.867C135.131 76.867 137.532 79.2713 137.532 82.2493Z" fill="white" stroke="white" stroke-width="2.5"/>
<path d="M139.954 130.632C139.954 133.61 137.552 136.015 134.602 136.015C131.652 136.015 129.25 133.61 129.25 130.632C129.25 127.654 131.652 125.25 134.602 125.25C137.552 125.25 139.954 127.654 139.954 130.632Z" fill="white" stroke="white" stroke-width="2.5"/>
<path d="M34.9536 25.6323C34.9536 28.6103 32.5521 31.0146 29.6018 31.0146C26.6515 31.0146 24.25 28.6103 24.25 25.6323C24.25 22.6543 26.6515 20.25 29.6018 20.25C32.5521 20.25 34.9536 22.6543 34.9536 25.6323Z" fill="white" stroke="white" stroke-width="2.5"/>
<path d="M152.954 49.6323C152.954 52.6103 150.552 55.0146 147.602 55.0146C144.652 55.0146 142.25 52.6103 142.25 49.6323C142.25 46.6543 144.652 44.25 147.602 44.25C150.552 44.25 152.954 46.6543 152.954 49.6323Z" fill="white" stroke="white" stroke-width="2.5"/>
<path d="M23.8484 124.537C23.8484 127.515 21.4469 129.919 18.4966 129.919C15.5463 129.919 13.1448 127.515 13.1448 124.537C13.1448 121.559 15.5463 119.154 18.4966 119.154C21.4469 119.154 23.8484 121.559 23.8484 124.537Z" fill="white" stroke="white" stroke-width="2.5"/>
<path d="M70.9536 154.632C70.9536 157.61 68.5521 160.015 65.6018 160.015C62.6515 160.015 60.25 157.61 60.25 154.632C60.25 151.654 62.6515 149.25 65.6018 149.25C68.5521 149.25 70.9536 151.654 70.9536 154.632Z" fill="white" stroke="white" stroke-width="2.5"/>
<path d="M90.9536 6.63231C90.9536 9.61032 88.5521 12.0146 85.6018 12.0146C82.6515 12.0146 80.25 9.61032 80.25 6.63231C80.25 3.6543 82.6515 1.25 85.6018 1.25C88.5521 1.25 90.9536 3.6543 90.9536 6.63231Z" fill="white" stroke="white" stroke-width="2.5"/>
<path d="M156.954 92.6323C156.954 95.6103 154.552 98.0146 151.602 98.0146C148.652 98.0146 146.25 95.6103 146.25 92.6323C146.25 89.6543 148.652 87.25 151.602 87.25C154.552 87.25 156.954 89.6543 156.954 92.6323Z" fill="white" stroke="white" stroke-width="2.5"/>
<path d="M11.9536 73.6323C11.9536 76.6103 9.55208 79.0146 6.6018 79.0146C3.65151 79.0146 1.25 76.6103 1.25 73.6323C1.25 70.6543 3.65151 68.25 6.6018 68.25C9.55208 68.25 11.9536 70.6543 11.9536 73.6323Z" fill="white" stroke="white" stroke-width="2.5"/>
</svg>
