<svg width="150" height="153" viewBox="0 0 150 153" fill="none" xmlns="http://www.w3.org/2000/svg">
<path d="M130.909 41.3778C130.909 43.2011 129.469 44.6342 127.746 44.6342C126.024 44.6342 124.583 43.2011 124.583 41.3778C124.583 39.5546 126.024 38.1215 127.746 38.1215C129.469 38.1215 130.909 39.5546 130.909 41.3778Z" fill="white" stroke="white" stroke-width="2.5"/>
<path d="M30.9094 79.0873C30.9094 80.9105 29.4688 82.3436 27.7465 82.3436C26.0241 82.3436 24.5835 80.9105 24.5835 79.0873C24.5835 77.2641 26.0241 75.831 27.7465 75.831C29.4688 75.831 30.9094 77.2641 30.9094 79.0873Z" fill="white" stroke="white" stroke-width="2.5"/>
<path d="M35.0759 118.473C35.0759 120.296 33.6353 121.729 31.913 121.729C30.1906 121.729 28.75 120.296 28.75 118.473C28.75 116.65 30.1906 115.216 31.913 115.216C33.6353 115.216 35.0759 116.65 35.0759 118.473Z" fill="white" stroke="white" stroke-width="2.5"/>
<path d="M42.5759 23.78C42.5759 25.6032 41.1353 27.0363 39.413 27.0363C37.6906 27.0363 36.25 25.6032 36.25 23.78C36.25 21.9568 37.6906 20.5237 39.413 20.5237C41.1353 20.5237 42.5759 21.9568 42.5759 23.78Z" fill="white" stroke="white" stroke-width="2.5"/>
<path d="M111.025 74.2412C111.025 94.5338 94.922 110.939 75.113 110.939C55.304 110.939 39.2012 94.5338 39.2012 74.2412C39.2012 53.9487 55.304 37.5432 75.113 37.5432C94.922 37.5432 111.025 53.9487 111.025 74.2412Z" stroke="white" stroke-width="2.5"/>
<path d="M124.218 74.2412C124.218 101.714 102.312 123.95 75.3339 123.95C48.3553 123.95 26.4502 101.714 26.4502 74.2412C26.4502 46.7685 48.3553 24.5325 75.3339 24.5325C102.312 24.5325 124.218 46.7685 124.218 74.2412Z" stroke="white" stroke-width="2.5"/>
<path d="M87.3339 74.2413C87.3339 81.173 81.8378 86.7474 75.1128 86.7474C68.3877 86.7474 62.8916 81.173 62.8916 74.2413C62.8916 67.3095 68.3877 61.7351 75.1128 61.7351C81.8378 61.7351 87.3339 67.3095 87.3339 74.2413Z" fill="white" stroke="white" stroke-width="2.5"/>
<path d="M42.2751 73.5297C42.2751 75.3529 40.8345 76.786 39.1122 76.786C37.3899 76.786 35.9492 75.3529 35.9492 73.5297C35.9492 71.7065 37.3899 70.2734 39.1122 70.2734C40.8345 70.2734 42.2751 71.7065 42.2751 73.5297Z" fill="white" stroke="white" stroke-width="2.5"/>
<path d="M42.2756 73.5297C42.2756 75.3529 40.835 76.786 39.1127 76.786C37.3904 76.786 35.9497 75.3529 35.9497 73.5297C35.9497 71.7065 37.3904 70.2734 39.1127 70.2734C40.835 70.2734 42.2756 71.7065 42.2756 73.5297Z" fill="white" stroke="white" stroke-width="2.5"/>
<path d="M26.7424 107.579C26.7424 109.402 25.3018 110.835 23.5795 110.835C21.8572 110.835 20.4165 109.402 20.4165 107.579C20.4165 105.756 21.8572 104.323 23.5795 104.323C25.3018 104.323 26.7424 105.756 26.7424 107.579Z" fill="white" stroke="white" stroke-width="2.5"/>
<path d="M114.046 74.4106C114.046 76.2338 112.605 77.667 110.883 77.667C109.16 77.667 107.72 76.2338 107.72 74.4106C107.72 72.5874 109.16 71.1543 110.883 71.1543C112.605 71.1543 114.046 72.5874 114.046 74.4106Z" fill="white" stroke="white" stroke-width="2.5"/>
<path d="M85.0759 123.501C85.0759 125.324 83.6353 126.757 81.913 126.757C80.1906 126.757 78.75 125.324 78.75 123.501C78.75 121.677 80.1906 120.244 81.913 120.244C83.6353 120.244 85.0759 121.677 85.0759 123.501Z" fill="white" stroke="white" stroke-width="2.5"/>
<path d="M78.5759 147.506C78.5759 149.33 77.1353 150.763 75.413 150.763C73.6906 150.763 72.25 149.33 72.25 147.506C72.25 145.683 73.6906 144.25 75.413 144.25C77.1353 144.25 78.5759 145.683 78.5759 147.506Z" fill="white" stroke="white" stroke-width="2.5"/>
<path d="M117.576 122.663C117.576 124.486 116.135 125.919 114.413 125.919C112.691 125.919 111.25 124.486 111.25 122.663C111.25 120.839 112.691 119.406 114.413 119.406C116.135 119.406 117.576 120.839 117.576 122.663Z" fill="white" stroke="white" stroke-width="2.5"/>
<path d="M128.409 76.5733C128.409 78.3965 126.968 79.8296 125.246 79.8296C123.524 79.8296 122.083 78.3965 122.083 76.5733C122.083 74.7501 123.524 73.317 125.246 73.317C126.968 73.317 128.409 74.7501 128.409 76.5733Z" fill="white" stroke="white" stroke-width="2.5"/>
<path d="M71.7424 23.78C71.7424 25.6032 70.3018 27.0363 68.5795 27.0363C66.8572 27.0363 65.4165 25.6032 65.4165 23.78C65.4165 21.9568 66.8572 20.5237 68.5795 20.5237C70.3018 20.5237 71.7424 21.9568 71.7424 23.78Z" fill="white" stroke="white" stroke-width="2.5"/>
<path d="M125.909 64.0035C125.909 65.8267 124.468 67.2598 122.746 67.2598C121.024 67.2598 119.583 65.8267 119.583 64.0035C119.583 62.1802 121.024 60.7471 122.746 60.7471C124.468 60.7471 125.909 62.1802 125.909 64.0035Z" fill="white" stroke="white" stroke-width="2.5"/>
<path d="M30.9089 64.8415C30.9089 66.6647 29.4683 68.0978 27.746 68.0978C26.0237 68.0978 24.583 66.6647 24.583 64.8415C24.583 63.0183 26.0237 61.5851 27.746 61.5851C29.4683 61.5851 30.9089 63.0183 30.9089 64.8415Z" fill="white" stroke="white" stroke-width="2.5"/>
<path d="M126.742 111.769C126.742 113.592 125.302 115.025 123.579 115.025C121.857 115.025 120.417 113.592 120.417 111.769C120.417 109.946 121.857 108.513 123.579 108.513C125.302 108.513 126.742 109.946 126.742 111.769Z" fill="white" stroke="white" stroke-width="2.5"/>
<path d="M30.9094 34.6739C30.9094 36.4972 29.4688 37.9303 27.7465 37.9303C26.0241 37.9303 24.5835 36.4972 24.5835 34.6739C24.5835 32.8507 26.0241 31.4176 27.7465 31.4176C29.4688 31.4176 30.9094 32.8507 30.9094 34.6739Z" fill="white" stroke="white" stroke-width="2.5"/>
<path d="M136.25 74.581C136.25 108.608 108.821 136.18 75 136.18C41.1791 136.18 13.75 108.608 13.75 74.581C13.75 40.5541 41.1791 12.9818 75 12.9818C108.821 12.9818 136.25 40.5541 136.25 74.581Z" stroke="white" stroke-width="2.5"/>
<circle cx="75" cy="75" r="73.75" stroke="white" stroke-width="2.5"/>
<path d="M71.7424 123.501C71.7424 125.324 70.3018 126.757 68.5795 126.757C66.8572 126.757 65.4165 125.324 65.4165 123.501C65.4165 121.677 66.8572 120.244 68.5795 120.244C70.3018 120.244 71.7424 121.677 71.7424 123.501Z" fill="white" stroke="white" stroke-width="2.5"/>
<path d="M71.7424 123.501C71.7424 125.324 70.3018 126.757 68.5795 126.757C66.8572 126.757 65.4165 125.324 65.4165 123.501C65.4165 121.677 66.8572 120.244 68.5795 120.244C70.3018 120.244 71.7424 121.677 71.7424 123.501Z" fill="white" stroke="white" stroke-width="2.5"/>
<path d="M120.909 29.646C120.909 31.4692 119.469 32.9023 117.746 32.9023C116.024 32.9023 114.583 31.4692 114.583 29.646C114.583 27.8228 116.024 26.3896 117.746 26.3896C119.469 26.3896 120.909 27.8228 120.909 29.646Z" fill="white" stroke="white" stroke-width="2.5"/>
<path d="M85.0759 23.78C85.0759 25.6032 83.6353 27.0363 81.913 27.0363C80.1906 27.0363 78.75 25.6032 78.75 23.78C78.75 21.9568 80.1906 20.5237 81.913 20.5237C83.6353 20.5237 85.0759 21.9568 85.0759 23.78Z" fill="white" stroke="white" stroke-width="2.5"/>
</svg>
